<svg width="47" height="46" viewBox="0 0 47 46" fill="none" xmlns="http://www.w3.org/2000/svg">
<path d="M19.2768 0.928833C20.8704 0.928833 21.7788 2.51569 21.7788 4.10931V13.8761H19.7614C19.3691 12.9063 18.6517 12.1031 17.7321 11.6042C16.8125 11.1053 15.7481 10.9417 14.7212 11.1416C13.6942 11.3414 12.7688 11.8922 12.1034 12.6995C11.438 13.5069 11.0742 14.5205 11.0742 15.5667C11.0742 16.6129 11.438 17.6265 12.1034 18.4338C12.7688 19.2412 13.6942 19.7919 14.7212 19.9918C15.7481 20.1916 16.8125 20.0281 17.7321 19.5292C18.6517 19.0303 19.3691 18.2271 19.7614 17.2572H21.7788V41.8219C21.7788 43.1654 21.2108 44.502 20.0139 45.1129C18.9286 45.6814 17.7227 45.9813 16.4975 45.9874C13.0939 45.9874 10.5626 44.2653 8.93293 42.2277C7.80428 40.8215 7.01727 39.1726 6.63379 37.4108C5.58118 37.1002 4.60631 36.5701 3.77339 35.8555C2.17301 34.4782 0.928772 32.2692 0.928772 29.0144C0.928772 27.3126 1.05049 25.8294 1.35704 24.5829H10.8466C12.3749 24.5829 13.6417 25.7099 13.8558 27.1773C12.8897 27.577 12.0926 28.3 11.6009 29.2226C11.1091 30.1452 10.9533 31.21 11.1601 32.2348C11.3669 33.2596 11.9235 34.1806 12.7345 34.8403C13.5455 35.5 14.5606 35.8573 15.6061 35.8511C16.6515 35.8448 17.6623 35.4754 18.4654 34.8061C19.2685 34.1368 19.814 33.2091 20.0085 32.1819C20.2031 31.1547 20.0346 30.0918 19.5318 29.1752C19.0291 28.2586 18.2234 27.5451 17.2527 27.157C17.1342 25.5389 16.4079 24.0255 15.2197 22.9209C14.0314 21.8162 12.4691 21.2021 10.8466 21.2018H3.27299C3.61053 20.9228 3.98626 20.6936 4.38875 20.5211C4.1564 19.6929 4.02175 18.8403 3.98753 17.9808C3.91314 16.324 4.16109 14.5997 4.65247 13.0647C5.13935 11.5545 5.91024 10.0826 6.99219 9.06598C7.67088 8.40465 8.53073 7.95982 9.46263 7.78793C9.91119 5.89452 11.054 4.33021 12.5124 3.19642C14.3855 1.73579 16.8402 0.928833 19.2745 0.928833H19.2768ZM25.1599 34.7262H28.8791C30.5829 34.7262 32.2168 34.0494 33.4216 32.8446C34.6263 31.6399 35.3031 30.0059 35.3031 28.3021V24.2561C36.273 23.8638 37.0762 23.1463 37.5751 22.2268C38.074 21.3072 38.2375 20.2427 38.0377 19.2158C37.8379 18.1889 37.2871 17.2634 36.4798 16.5981C35.6724 15.9327 34.6588 15.5688 33.6126 15.5688C32.5664 15.5688 31.5528 15.9327 30.7455 16.5981C29.9381 17.2634 29.3873 18.1889 29.1875 19.2158C28.9877 20.2427 29.1512 21.3072 29.6501 22.2268C30.149 23.1463 30.9522 23.8638 31.9221 24.2561V28.3021C31.9221 29.1092 31.6015 29.8832 31.0308 30.4538C30.4601 31.0245 29.6861 31.3451 28.8791 31.3451H25.1599V15.5825V15.5667V4.10931C25.1599 2.51569 26.0683 0.928833 27.6619 0.928833C30.1008 0.928833 32.5532 1.73579 34.4263 3.19642C35.8847 4.33021 37.0275 5.89678 37.4761 7.78793C38.4228 7.94571 39.2658 8.42808 39.9465 9.06598C41.0285 10.0826 41.7993 11.5522 42.2862 13.0647C42.7776 14.5997 43.0255 16.324 42.9512 17.9808C42.9128 18.8283 42.7889 19.6939 42.5499 20.5211L42.6987 20.5887C43.5327 20.9809 44.2089 21.5963 44.7138 22.4145C45.6718 23.9585 46.0099 26.181 46.0099 29.0144C46.0099 32.2715 44.7657 34.4827 43.1653 35.8555C42.3317 36.5704 41.3561 37.1004 40.3026 37.4108C39.9198 39.1724 39.1335 40.8212 38.0058 42.2277C36.3761 44.2653 33.8448 45.9874 30.4389 45.9874C29.2139 45.982 28.0081 45.6828 26.9226 45.1151C25.7279 44.502 25.1599 43.1654 25.1599 41.8219V34.7262ZM14.4531 15.5667C14.4531 15.2678 14.5719 14.9811 14.7832 14.7698C14.9946 14.5584 15.2812 14.4397 15.5801 14.4397C15.8791 14.4397 16.1657 14.5584 16.3771 14.7698C16.5884 14.9811 16.7072 15.2678 16.7072 15.5667C16.7072 15.8656 16.5884 16.1523 16.3771 16.3636C16.1657 16.575 15.8791 16.6937 15.5801 16.6937C15.2812 16.6937 14.9946 16.575 14.7832 16.3636C14.5719 16.1523 14.4531 15.8656 14.4531 15.5667ZM15.5801 30.2181C15.2812 30.2181 14.9946 30.3368 14.7832 30.5482C14.5719 30.7595 14.4531 31.0462 14.4531 31.3451C14.4531 31.644 14.5719 31.9307 14.7832 32.142C14.9946 32.3534 15.2812 32.4721 15.5801 32.4721C15.8791 32.4721 16.1657 32.3534 16.3771 32.142C16.5884 31.9307 16.7072 31.644 16.7072 31.3451C16.7072 31.0462 16.5884 30.7595 16.3771 30.5482C16.1657 30.3368 15.8791 30.2181 15.5801 30.2181ZM32.4856 20.0748C32.4856 20.3737 32.6043 20.6604 32.8157 20.8717C33.027 21.0831 33.3137 21.2018 33.6126 21.2018C33.9115 21.2018 34.1982 21.0831 34.4095 20.8717C34.6209 20.6604 34.7396 20.3737 34.7396 20.0748C34.7396 19.7759 34.6209 19.4892 34.4095 19.2779C34.1982 19.0665 33.9115 18.9478 33.6126 18.9478C33.3137 18.9478 33.027 19.0665 32.8157 19.2779C32.6043 19.4892 32.4856 19.7759 32.4856 20.0748Z" fill="#FF9F33"/>
</svg>
