<svg width="40" height="41" viewBox="0 0 40 41" fill="none" xmlns="http://www.w3.org/2000/svg">
<path d="M35.3743 14.1642L25.5868 12.7417L21.2115 3.87172C21.092 3.62887 20.8954 3.43227 20.6526 3.31277C20.0435 3.01209 19.3034 3.26266 18.9988 3.87172L14.6236 12.7417L4.83613 14.1642C4.56629 14.2027 4.31958 14.3299 4.13069 14.5227C3.90233 14.7574 3.7765 15.0732 3.78084 15.4006C3.78517 15.728 3.91933 16.0403 4.15382 16.2689L11.2352 23.173L9.56217 32.9219C9.52294 33.1487 9.54804 33.3819 9.63461 33.5951C9.72119 33.8084 9.86579 33.9931 10.052 34.1284C10.2382 34.2636 10.4586 34.344 10.6882 34.3603C10.9177 34.3767 11.1473 34.3284 11.3508 34.221L20.1052 29.6183L28.8596 34.221C29.0986 34.3482 29.3761 34.3906 29.6421 34.3443C30.3128 34.2287 30.7639 33.5926 30.6482 32.9219L28.9752 23.173L36.0566 16.2689C36.2493 16.08 36.3765 15.8333 36.4151 15.5635C36.5192 14.8889 36.0489 14.2644 35.3743 14.1642Z" fill="#FDA202"/>
</svg>
