<svg width="47" height="46" fill="none" xmlns="http://www.w3.org/2000/svg"><path d="M19.277.929c1.593 0 2.502 1.587 2.502 3.18v9.767H19.76a4.508 4.508 0 100 3.381h2.018v24.565c0 1.343-.568 2.68-1.765 3.29a7.66 7.66 0 01-3.517.875c-3.403 0-5.934-1.722-7.564-3.76a11.656 11.656 0 01-2.3-4.816 7.77 7.77 0 01-2.86-1.556C2.173 34.478.93 32.27.93 29.015c0-1.702.121-3.186.428-4.432h9.49a3.04 3.04 0 013.009 2.594 4.508 4.508 0 103.397-.02 6.425 6.425 0 00-6.406-5.955H3.273a4.588 4.588 0 011.116-.68 11.029 11.029 0 01-.401-2.541 14.325 14.325 0 01.664-4.916c.487-1.51 1.258-2.982 2.34-3.999a4.783 4.783 0 012.47-1.278c.45-1.893 1.592-3.458 3.05-4.592C14.385 1.736 16.84.93 19.274.93h.003zm5.883 33.797h3.72a6.424 6.424 0 006.423-6.424v-4.046a4.508 4.508 0 10-3.38 0v4.046a3.043 3.043 0 01-3.044 3.043h-3.72V4.11c0-1.593.91-3.18 2.503-3.18 2.439 0 4.891.807 6.764 2.267 1.459 1.134 2.602 2.7 3.05 4.592.947.158 1.79.64 2.47 1.278 1.083 1.017 1.853 2.486 2.34 3.999.492 1.535.74 3.259.665 4.916a10.99 10.99 0 01-.401 2.54l.149.068c.834.392 1.51 1.007 2.015 1.826.958 1.544 1.296 3.766 1.296 6.6 0 3.257-1.244 5.468-2.845 6.84a7.77 7.77 0 01-2.862 1.556 11.658 11.658 0 01-2.297 4.817c-1.63 2.037-4.161 3.76-7.567 3.76a7.66 7.66 0 01-3.516-.873c-1.195-.613-1.763-1.95-1.763-3.293v-7.096zm-10.707-19.16a1.127 1.127 0 112.254 0 1.127 1.127 0 01-2.254 0zm1.127 14.652a1.127 1.127 0 100 2.254 1.127 1.127 0 000-2.254zm16.906-10.143a1.127 1.127 0 102.253 0 1.127 1.127 0 00-2.253 0z" fill="#FF9F33"/></svg>